# xmcd
#
# Track frame offsets:
#	150
#	16794
#	41950
#	57325
#	90528
#	126705
#	142573
#	171833
#	197097
#	212382
#	246408
#	264188
#	289362
#	316156
#	332034
#
# Disc length: 4718 seconds
#
# Revision: 0
# Processed by: cddbd v1.4PL0 Copyright (c) Steve Scherf et al.
# Submitted via: EasyCDDAExtractor 5.0.5.1
#
DISCID=d9126c0f
DTITLE=Various Artist - SILLY SPIDER MUSIC APRIL 2003
DYEAR=2003
DGENRE=Dance
TTITLE0=SINEMA FEAT SANDRA - KEEP ME HANGIN'ON''(RADIO EDIT)
TTITLE1=SINEMA  - KEEP ME HANGIN'ON (ORIGINAL MIX)
TTITLE2=HORNY UNITED MEES IRVIN DOOMES - WHY DO YOU CALL(MZIN RADIE EDIT)
TTITLE3=HORNY UNITED MEES IRVIN DOOMES - WHY DO YOU CALL(MAIN CLUB MIX)
TTITLE4=HORNY UNITED MEES IRVIN DOOMES - WHY DO YOU CALL(BEAT FREAKS VOCAL REM
TTITLE4=IX)
TTITLE5=ACRALITE - WHAT IS IT (RADIO EDIT)
TTITLE6=ACRALITE - WHAT IS IT (ORIGINAL MIX)
TTITLE7=ACRALITE - WHAT IS IT (DUSE MIX)
TTITLE8=HOOLIGAN  - HEAR YOU NOW (SINGLE EDIT)
TTITLE9=HOOLIGAN  - HEAR YOU NOW (EXTENTED MIX)
TTITLE10=E-MEN - ANIMAL SKIN(TOK TOK REMIX)
TTITLE11=E-MEN - ANIMAL SKIN(ACRALITE REMIX)
TTITLE12=E-MEN - ANIMAL SKIN(DUSE REMIX
TTITLE13=CINTHIESIZER  - I ONLY MOVE YOUR MONEY(RADIO MIX)
TTITLE14=CINTHIESIZER - I ONLY MOVE YOUR MONEY(ACRALITE REMIX)
EXTD=
EXTT0=
EXTT1=
EXTT2=
EXTT3=
EXTT4=
EXTT5=
EXTT6=
EXTT7=
EXTT8=
EXTT9=
EXTT10=
EXTT11=
EXTT12=
EXTT13=
EXTT14=
PLAYORDER=
